<?xml version="1.0" encoding="utf-8"?>
<!-- Generator: Adobe Illustrator 15.1.0, SVG Export Plug-In . SVG Version: 6.00 Build 0)  -->
<!DOCTYPE svg PUBLIC "-//W3C//DTD SVG 1.1//EN" "http://www.w3.org/Graphics/SVG/1.1/DTD/svg11.dtd">
<svg version="1.1" id="Layer_1" xmlns="http://www.w3.org/2000/svg" xmlns:xlink="http://www.w3.org/1999/xlink" x="0px" y="0px"
	 width="31px" height="43.777px" viewBox="0 0 31 43.777" enable-background="new 0 0 31 43.777" xml:space="preserve">
<g>
	<defs>
		<rect id="SVGID_1_" width="31" height="43.777"/>
	</defs>
	<clipPath id="SVGID_2_">
		<use xlink:href="#SVGID_1_"  overflow="visible"/>
	</clipPath>
	<path clip-path="url(#SVGID_2_)" d="M30.792,9.568V9.545v-0.18L30.797,0l-5.408,5.042l0.006-4.225
		C-2.521,0.817,0.72,23.436,0.72,23.436l6.484-0.181L0.083,36.753v7.024h30.797v-5.403L14.312,22.166c0,0-0.901-3.783,2.161-3.783
		c3.062,0,2.882,2.882,2.882,2.882h8.645V12.26c0,0-0.36-2.702,2.701-2.702"/>
	<path clip-path="url(#SVGID_2_)" fill="none" stroke="#FFFFFF" stroke-width="0.5389" d="M3.226,23.632l-2.878,0.151 M3.185,22.219
		H0.303 M3.215,20.812l-2.877-0.16 M3.325,19.412l-2.863-0.327 M3.521,18.025l-2.837-0.501 M3.812,16.659l-2.8-0.679 M4.194,15.352
		l-2.73-0.921 M4.676,14.081l-2.637-1.162 M5.279,12.828L2.727,11.49 M5.976,11.663l-2.422-1.562 M6.757,10.586L4.521,8.769
		 M7.656,9.558L5.581,7.559 M8.647,8.609L6.739,6.45 M9.699,7.757L8,5.43 M10.847,6.974L9.312,4.536 M12.036,6.285l-1.339-2.551
		 M13.299,5.667l-1.191-2.625 M14.588,5.134l-1.02-2.696 M15.915,4.673l-0.861-2.75 M17.273,4.281L16.556,1.49 M18.657,3.956
		l-0.588-2.82 M20.062,3.695l-0.472-2.842 M21.473,3.498l-0.345-2.862 M22.89,3.361l-0.216-2.874 M24.312,3.284l-0.088-2.88
		 M25.715,3.278l0.082-2.88"/>
	<line clip-path="url(#SVGID_2_)" fill="none" stroke="#FFFFFF" stroke-width="0.9238" x1="0" y1="38.092" x2="31" y2="38.092"/>
</g>
</svg>
