<svg xmlns="http://www.w3.org/2000/svg" xmlns:xlink="http://www.w3.org/1999/xlink" width="31" height="43.777" viewBox="0 0 31 43.777"><defs><path id="a" d="M0 0h31v43.777H0z"/></defs><clipPath id="b"><use xlink:href="#a" overflow="visible"/></clipPath><path clip-path="url(#b)" d="M30.792 9.568V9.365L30.797 0 25.39 5.042l.005-4.225C-2.52.817.72 23.437.72 23.437l6.484-.182-7.12 13.498v7.024H30.88v-5.403L14.312 22.166s-.9-3.783 2.16-3.783c3.063 0 2.883 2.882 2.883 2.882H28V12.26s-.36-2.702 2.7-2.702"/><path clip-path="url(#b)" fill="none" stroke="#FFF" stroke-width=".539" d="M3.226 23.632l-2.878.15m2.837-1.563H.303m2.912-1.408l-2.877-.16m2.987-1.24l-2.863-.327m3.06-1.06l-2.838-.5m3.128-.866l-2.8-.68m3.182-.628l-2.73-.92m3.212-.35L2.04 12.918m3.24-.092L2.726 11.49m3.25.173L3.553 10.1m3.203.486L4.52 8.77m3.136.788l-2.075-2m3.067 1.05L6.74 6.45M9.7 7.757L8 5.43m2.847 1.544L9.312 4.536m2.724 1.75l-1.34-2.552M13.3 5.667l-1.192-2.625m2.48 2.092l-1.02-2.696m2.347 2.235l-.86-2.75m2.218 2.358l-.717-2.79m2.1 2.466l-.587-2.82m1.992 2.56L19.59.852m1.883 2.645L21.128.636M22.89 3.36L22.674.488m1.638 2.797l-.088-2.88m1.49 2.874l.083-2.88"/><path clip-path="url(#b)" fill="none" stroke="#FFF" stroke-width=".924" d="M0 38.092h31"/></svg>